# xmcd
#
# Track frame offsets:
#	150
#	17527
#	31829
#	55314
#	66779
#	78625
#	90712
#	105837
#	120601
#	133352
#	143886
#	161155
#	177331
#	192753
#	207097
#	219110
#	231019
#	244829
#
# Disc length: 3472 seconds
# Revision: 1
# Processed by: cddbd v1.5.2PL0 Copyright (c) Steve Scherf et al.
# Submitted via: dBpowerAMP V12.0
#
DISCID=f30d8e12
DTITLE=Various Artist - Ultimate... Country, Disc 1
DYEAR=2015
DGENRE=Country
TTITLE0=Alan Jackson duet with Jimmy Buffett - It's Five O' Clock Somewhere
TTITLE1=Miranda Lambert - Gunpowder and Lead
TTITLE2=Brad Paisley - This Is Country Music
TTITLE3=Willie Nelson - On the Road Again
TTITLE4=Johnny Cash - Ring of Fire
TTITLE5=Dolly Parton - Jolene
TTITLE6=Billy Ray Cyrus - Crazy 'Bout You Baby
TTITLE7=Pistol Annies - Hell on Heels
TTITLE8=Gretchen Wilson - California Girls
TTITLE9=The Statler Brothers - Flowers on the Wall
TTITLE10=Ricky Skaggs - Country Boy
TTITLE11=Charlie Daniels - The Devil Went Down to Georgia
TTITLE12=Chet Atkins and Mark Knopfler - Yakety Axe
TTITLE13=John Denver - Take Me Home, Country Roads [Remastered]
TTITLE14=Charlie Rich - The Most Beautiful Girl
TTITLE15=Tammy Wynette - Stand by Your Man
TTITLE16=George Jones and Tammy Wynette - Golden Ring [Single Version]
TTITLE17=Smokie - Living Next Door to Alice
EXTD=
EXTT0=
EXTT1=
EXTT2=
EXTT3=
EXTT4=
EXTT5=
EXTT6=
EXTT7=
EXTT8=
EXTT9=
EXTT10=
EXTT11=
EXTT12=
EXTT13=
EXTT14=
EXTT15=
EXTT16=
EXTT17=
PLAYORDER=
